<?xml version="1.0" encoding="UTF-8"?>
<svg id="_Слой_1" data-name="Слой 1" xmlns="http://www.w3.org/2000/svg" viewBox="0 0 1432.325639373248123 1431.056344996064581">
  <defs>
    <style>
      .cls-1 {
        fill: #597def;
      }
    </style>
  </defs>
  <rect class="cls-1" x="1078.375077930456428" y="959.584981347741632" width="3.805071857163057" height="102.57346518714985"/>
  <path class="cls-1" d="M1056.435448863174315,1062.160927186732806v-69.749480042108189c-.048868841245167-10.657872564781428-3.216165110379734-19.031064785049239-9.51057108884379-25.109654053441773-6.294405978463146-6.088511875757831-14.814452787648406-9.128302640321635-25.570311100102117-9.128302640321635-10.755362182086174,0-19.285331598631274,3.039790764563804-25.570311100103027,9.128302640321635-6.294405978464056,6.078589268392534-9.441608967695174,14.550015301520034-9.441608967695174,25.393440623920469v69.465693471629493h3.804079596426163v-30.541785452373006h62.484643063890871v30.541785452373006h3.804079596427073ZM990.146726202856371,1027.815310203119225v-34.904259777948027c0-9.539594715370185,2.843571204033651-17.079287917444162,8.520542939555526-22.619079606221931,5.686398212513268-5.539295558410231,13.245688564121338-8.314152706476307,22.687297531816512-8.314152706476307,9.442105098062711,0,17.011069991846853,2.774857148066076,22.717065353894213,8.314152706476307,5.706491492415807,5.539791688777768,8.559737238624621,13.059639676132065,8.559737238624621,22.540691008081922v34.982648376088036h-62.484643063890871Z"/>
  <polygon class="cls-1" points="1117.05141689609809 959.584981347741632 1113.175646461499127 959.584981347741632 1113.175646461499127 1062.158446534891482 1117.05141689609809 1062.158446534891482 1117.05141689609809 966.066428474930945 1183.272417761187171 1062.158446534891482 1187.077241553166459 1062.158446534891482 1187.077241553166459 959.584981347741632 1183.272417761187171 959.584981347741632 1183.272417761187171 1055.465647870945759 1117.05141689609809 959.584981347741632"/>
  <path class="cls-1" d="M491.35015363317325,967.510167845730393c-5.801252392699098-5.283292288535449-13.938782688179344-7.925186497988761-24.41085443015254-7.925186497988761h-32.05324661839586v102.57346518714985h3.803087335691089v-43.325576643910608h28.743312868469729c10.426923878487287-.094264769912115,18.468701012949168-2.677119465577562,24.128308185591777-7.750052478091675,5.658614911906625-5.072436882150214,8.489038661187806-12.257396871122182,8.489038661187806-21.556368358025793,0-9.392740126448189-2.900130065981102-16.731996659862489-8.699646002392001-22.016281209133012ZM488.531388947538289,1008.334751304691963c-5.14164706847987,4.463188790276035-12.340002577388077,6.692798663942085-21.59208974451758,6.692798663942085h-28.250159282704772v-51.638240959280665h28.250159282704772c9.252087167129503,0,16.45044267603771,2.313952036223782,21.59208974451758,6.93987158719392,5.143631589951838,4.626415681341314,7.714331091599888,11.072141422035202,7.714331091599888,19.337177222085302,0,7.985218272511702-2.570699501648051,14.207685347621009-7.714331091599888,18.668393486059358Z"/>
  <path class="cls-1" d="M578.001803051358365,967.510167845730393c-5.801500457883776-5.283292288535449-13.939030753363113-7.925186497988761-24.41085443015254-7.925186497988761h-32.053494683579629v102.57346518714985h3.803087335690179v-43.325576643910608h28.743312868469729c10.426923878488196-.094264769912115,18.468949078133846-2.677119465577562,24.128556250775546-7.750052478091675,5.658614911906625-5.072436882150214,8.489038661188715-12.257396871122182,8.489038661188715-21.556368358025793,0-9.392740126448189-2.900378131164871-16.731996659862489-8.699646002392001-22.016281209133012ZM575.182790300539637,1008.334751304691963c-5.141399003296101,4.463188790276035-12.339754512204308,6.692798663942085-21.591841679333811,6.692798663942085h-28.25040734788945v-51.638240959280665h28.25040734788945c9.252087167129503,0,16.45044267603771,2.313952036223782,21.591841679333811,6.93987158719392,5.143631589951838,4.626415681341314,7.714331091599888,11.072141422035202,7.714331091599888,19.337177222085302,0,7.985218272511702-2.570699501648051,14.207685347621009-7.714331091599888,18.668393486059358Z"/>
  <path class="cls-1" d="M816.538307190184241,974.66039870894565c6.127954240008876-7.513398292572674,14.170723635205832-11.271089699592267,24.128308185591777-11.271089699592267,9.768310815004043,0,17.401276526256879,2.453860799989343,22.895176155998342,7.362078530339204,5.495884151210703,4.907721599982324,8.782003643475036,12.081270590490021,9.864063976021498,21.52213536263298h3.803087335691089c-.986307171528097-10.520940583217453-4.649485743450896-18.599431364909833-10.990031846135935-24.234976214705966-6.340298037500361-5.635544849796133-14.863817759262929-8.453565339877969-25.572295621574995-8.453565339877969-7.326357143845598,0-13.820207530234256,1.878845703511615-19.478822442140881,5.636040980163671-5.660599433378593,3.756699146284518-10.01513567307029,9.076705082054104-13.067577762019027,15.956048764353909-3.054426610421615,6.881328203773592-4.58052362230319,14.688931804554159-4.58052362230319,23.424795323808212v15.849876865606348c.045892059036305,8.735863519254053,1.62011371661356,16.497326995813637,4.720184320886801,23.283894299303938,3.100318669458829,6.786567303493939,7.455102974335205,12.023223337440868,13.067825827204615,15.709471971473249,5.61272285286941,3.687240894767456,12.058448593565117,5.530365211787284,19.338913678371682,5.530365211787284,10.802246501858463,0,19.348836285731522-2.829431488546106,25.643242264195578-8.489286726373393,6.292421456992088-5.65935910745975,9.932778031987255-13.77307514527638,10.919085203515351-24.339659722350916h-3.803087335691089c-.986307171527187,9.676030566562986-4.239682059505867,16.931937198158266-9.758636272827061,21.769208285888453-5.518954213323923,4.836774957359012-13.184416463678645,7.255410501224105-23.000603859192779,7.255410501224105-6.575711897103247,0-12.410701154824892-1.736952418272267-17.506456164266638-5.213337906654488-5.097491465730855-3.474400966904795-9.00600650461547-8.323083053099253-11.729018029231156-14.547038519311172-2.724996046086744-6.223459335844382-4.086377775802248-13.373690199059638-4.086377775802248-21.451188720013306v-15.076409621939092c0-12.632967559675308,3.063853087411189-22.707390811719961,9.193543783708265-30.222773625762784Z"/>
  <rect class="cls-1" x="246.681230081026115" y="809.036205708051057" width="22.879796114590135" height="111.241358845989453"/>
  <polygon class="cls-1" points="381.057396050744501 920.277564554040509 381.057396050744501 809.036205708051057 358.254252078006175 809.036205708051057 358.254252078006175 882.382134787587347 313.640224868474434 809.036205708051057 290.761669079804051 809.036205708051057 290.761669079804051 920.277564554040509 313.640224868474434 920.277564554040509 313.640224868474434 847.0849397582042 358.177599936154365 920.277564554040509 381.057396050744501 920.277564554040509"/>
  <polygon class="cls-1" points="449.998183593057547 920.277564554040509 449.998183593057547 827.602892468670689 484.010897099760768 827.602892468670689 484.010897099760768 809.036205708051057 393.563850366588667 809.036205708051057 393.563850366588667 827.602892468670689 427.119379739204305 827.602892468670689 427.119379739204305 920.277564554040509 449.998183593057547 920.277564554040509"/>
  <polygon class="cls-1" points="497.052179952277584 920.277564554040509 571.485130668042984 920.277564554040509 571.485130668042984 901.864678207488396 519.930735740947057 901.864678207488396 519.930735740947057 872.069072828549906 563.858614651573589 872.069072828549906 563.858614651573589 854.113122550899789 519.930735740947057 854.113122550899789 519.930735740947057 827.602892468670689 571.331826384339365 827.602892468670689 571.331826384339365 809.036205708051057 497.052179952277584 809.036205708051057 497.052179952277584 920.277564554040509"/>
  <polygon class="cls-1" points="656.365346607383799 901.864678207488396 607.785501301465047 901.864678207488396 607.785501301465047 809.036205708051057 584.906945512794664 809.036205708051057 584.906945512794664 920.277564554040509 656.365346607383799 920.277564554040509 656.365346607383799 901.864678207488396"/>
  <polygon class="cls-1" points="740.940690435603756 901.864678207488396 692.360845129686822 901.864678207488396 692.360845129686822 809.036205708051057 669.48228934101553 809.036205708051057 669.48228934101553 920.277564554040509 740.940690435603756 920.277564554040509 740.940690435603756 901.864678207488396"/>
  <rect class="cls-1" x="755.506581908900444" y="809.036205708051057" width="22.878555788669473" height="111.241358845989453"/>
  <path class="cls-1" d="M818.613868584596275,813.96426865311696c-7.041826377813777,4.305419333260943-12.431786695464325,10.518956061747303-16.16740030111032,18.642594706925593-3.737598127117963,8.124134775542188-5.605280897349985,17.738645176475984-5.605280897349985,28.8415466813276v7.563507459733955c.101458660250501,10.799269719653239,2.122693779369911,20.196971149780438,6.063457292172643,28.192608160021337,3.938778991330764,7.997621531711047,9.531656629481404,14.0960560148269,16.776896458163719,18.29877636191668,7.244991763497637,4.201231955990806,15.671766063504947,6.302840194723103,25.28007483483907,6.302840194723103,9.152364963167201,0,17.490083862125175-1.363366251189291,25.014893153158482-4.087121971359011,7.525057356218895-2.724747980901157,13.346154963636764-6.558347334223072,17.465277343724665-11.499309668855858v-44.38928015284182h-43.698914745806178v16.884308682827395h20.819118631216952v19.17742324360006c-3.660945985267062,3.667395680047775-9.786667638620202,5.50109352007712-18.379397546713335,5.50109352007712-8.540636219458065,0-15.022827542198684-2.980255120412039-19.446822033407443-8.938284709387517-4.423746426024081-5.96051024082044-6.635495606444238-14.771289445638104-6.635495606444238-26.435810527033027v-7.105579130096885c.051845623453119-11.561822095223761,2.110290520169656-20.271886835347686,6.177567276805348-26.129201959625789,4.067276756636602-5.856818993910565,9.991817545776939-8.786964947154047,17.769653324477986-8.786964947154047,6.100915134953539,0,10.891549968092477,1.478468496556161,14.376369672730107,4.431932577095722,3.480602596509016,2.95396021090346,5.731794141182036,7.615601148372662,6.747621069605884,13.980953769456391h22.270299957534917c-1.374529184466155-12.020742685599544-5.771484570619577-21.175340235422482-13.194835201404203-27.465777170942602-7.423350630782807-6.290436935516482-17.717807701023048-9.436895729199023-30.885603797372823-9.436895729199023-9.456989009102472,0-17.705404441823703,2.153701927367365-24.747478884821248,6.456640608790622Z"/>
  <polygon class="cls-1" points="980.405206427722078 901.864678207488396 928.851803761363044 901.864678207488396 928.851803761363044 872.069072828549906 972.778690411253592 872.069072828549906 972.778690411253592 854.113122550899789 928.851803761363044 854.113122550899789 928.851803761363044 827.602892468670689 980.251902144019368 827.602892468670689 980.251902144019368 809.036205708051057 905.972255711956677 809.036205708051057 905.972255711956677 920.277564554040509 980.405206427722078 920.277564554040509 980.405206427722078 901.864678207488396"/>
  <polygon class="cls-1" points="1084.121755982678224 809.036205708051057 1061.320844596597453 809.036205708051057 1061.320844596597453 882.382134787587347 1016.70557706114414 809.036205708051057 993.828013533210651 809.036205708051057 993.828013533210651 920.277564554040509 1016.70557706114414 920.277564554040509 1016.70557706114414 847.0849397582042 1061.244192454744734 920.277564554040509 1084.121755982678224 920.277564554040509 1084.121755982678224 809.036205708051057"/>
  <polygon class="cls-1" points="1187.077241553166459 809.036205708051057 1096.630194819994358 809.036205708051057 1096.630194819994358 827.602892468670689 1130.185972257794674 827.602892468670689 1130.185972257794674 920.277564554040509 1153.063535785728163 920.277564554040509 1153.063535785728163 827.602892468670689 1187.077241553166459 827.602892468670689 1187.077241553166459 809.036205708051057"/>
  <path class="cls-1" d="M306.105492970080377,1052.19019518159439c-5.823330194072696,4.109447837912739-13.220633980538878,6.164419822052878-22.190422968292296,6.164419822052878-10.098237509706451,0-18.293318927871042-2.324866904316877-24.585988450046898-6.97460071295427-6.294405978462237-4.649237678266218-9.44061670695919-11.177321060044051-9.44061670695919-19.584250145333499h-3.804079596426163c0,6.198652817445691,1.490871755756416,11.577202136631968,4.473359462821463,16.131678914614895,2.982487707065047,4.556957429827889,7.432777107775109,8.066583652860572,13.35012400657979,10.532351581685361,5.917098833620912,2.466264059188688,12.58583517471925,3.698651893231727,20.007201284030998,3.698651893231727,6.667992145546123,0,12.6808441401854-1.081068071813206,18.035083071341433-3.241219693962194,5.354238931156033-2.159159361417551,9.485764570444189-5.223756644380046,12.398297895625547-9.193295718523586,2.911789129628232-3.968050683044567,4.368179824810795-8.534930720226839,4.368179824810795-13.701632372289168,0-8.125127036280901-3.288104013735392-14.605581902735139-9.863071715286424-19.444341381567938-5.16645358687947-3.803335400876676-13.314650685270863-7.150726993582794-24.445335490727302-10.038205735181691-11.13068480545553-2.888967132701509-19.115903077969051-6.210063815906324-23.953174165697419-9.969243614032166-4.837023022545509-3.756203015916981-7.255658566409693-8.711057000859-7.255658566409693-14.864065824447607,0-6.058744053676492,2.782547168771998-11.094963418963744,8.348137636684442-15.110642617328267,5.565838533096212-4.015679198368161,12.856970420815742-6.023518797552242,21.874635989078342-6.023518797552242,8.969540922569649,0,16.273076069488525,2.500993184949039,21.909861245204411,7.502979554843478,5.635544849796133,5.001490239526902,8.452573079141985,11.330625343751308,8.452573079141985,18.985420791192155h3.804823791979288c0-5.823082128888927-1.433320633072071-11.048327164371585-4.296985117007353-15.674742845712899-2.865649005407249-4.625423420606239-6.916801525085248-8.217903415090404-12.152217233111514-10.778432244198484-5.237400229498235-2.560032698733266-11.143088064654876-3.839552917732362-17.718055766206817-3.839552917732362-10.098485574890219,0-18.29356699305572,2.313455905848969-24.586980710782882,6.938879326455208-6.294405978462237,4.626911811712489-9.439872511406065,10.673252606189635-9.439872511406065,18.140510774537688,0,4.696370063225913,1.033191491301295,8.689227264661895,3.099326408721026,11.976090952481172,2.066382982604409,3.287855948550714,5.31975787058218,6.176823081252223,9.757644012093806,8.664916876634379,4.437886141511626,2.490574447219842,11.095211484145693,4.956342376040993,19.97197602790493,7.397799916830991,8.875772283022343,2.44244980152871,15.509283367994612,4.825860089269554,19.90202164602033,7.150230863215256,4.391001821739337,2.324866904320515,7.608159192854146,5.001986369898077,9.651472113348063,8.03036613599761,2.04306485530924,3.029372026841884,3.063853087412099,6.729016180808685,3.063853087412099,11.096451810069993,0,6.575711897101428-2.912533325180448,11.917547569057206-8.736111584438731,16.026995406973583Z"/>
  <path class="cls-1" d="M372.749693039049816,1062.158446534891482c10.75436992135019,0,19.279626099400048-3.039790764567442,25.573287882310979-9.122845206275088,6.293413717728072-6.082062180968933,9.439624446224116-14.548030780046247,9.439624446224116-25.396913536496868v-69.462220559049456h-3.803087335691089v69.251365152664221c0,9.534633411687537-2.842578943296758,17.071845961920189-8.525256178050768,22.613622172171745-5.6826772347531,5.541776210251555-13.243952107834048,8.313160445741232-22.684568814793238,8.313160445741232-9.438880250670991,0-17.012310317766605-2.771384235489677-22.719049875366181-8.313160445741232-5.706491492415807-5.541776210251555-8.559737238624621-13.056166763559304-8.559737238624621-22.543667790290783v-69.321319534545182h-3.803087335691089v69.743526477690466c.045892059038124,10.662337738089263,3.21517284964375,19.033545436886925,9.509578828107806,25.115607617855858,6.292669522175856,6.083054441707645,14.817925700224805,9.122845206275088,25.572295621574085,9.122845206275088Z"/>
  <polygon class="cls-1" points="667.614606570785327 1058.353622742912194 614.989810374790068 1058.353622742912194 614.989810374790068 959.584981347741632 611.116024461662164 959.584981347741632 611.116024461662164 1062.158446534891482 667.614606570785327 1062.158446534891482 667.614606570785327 1058.353622742912194"/>
  <path class="cls-1" d="M705.712457527370134,1062.160927186732806v-38.482848122133873c9.883164995189873-.323973130285594,17.785529496251002-3.353841287491377,23.707589633551834-9.079185733891791,6.294405978464056-6.078589268392534,9.441608967694265-14.550015301520034,9.441608967694265-25.393936754288006v-31.188243321837945h-3.804079596427073v30.972426611766423c0,9.540090845741361-2.843571204031832,17.069861440453678-8.520542939553707,22.619079606225569-4.863069866863952,4.74548696965212-11.108607004082842,7.451878126939846-18.726192673927471,8.138026425847784-1.275055045687623.117582897208194-2.598730867438462.176126280628523-3.96110485788995.176126280628523-1.392141812530099,0-2.7356628489988-.058543383420329-4.049664128573568-.186048887990182-7.578887501142162-.696070906265959-13.804331358457603-3.401965933186148-18.667401225320646-8.128103818486125-5.706491492416717-5.54921816577189-8.559985303809299-13.059639676135703-8.559985303809299-22.550117485076044v-31.041388732915948h-3.803831531242395v31.462603415326157c.048620776060488,10.667795172135811,3.215917045195965,19.04098739240726,9.51057108884379,25.119576660799794,5.911889464756314,5.706491492415807,13.785230339291047,8.735863519254053,23.6284568398587,9.079185733891791v38.482848122133873h3.80457572679552Z"/>
  <polygon class="cls-1" points="967.794564734605046 1062.158446534891482 967.794564734605046 959.584981347741632 963.991229333731098 959.584981347741632 963.991229333731098 1007.490337418401396 898.475229721529104 1007.490337418401396 898.475229721529104 959.584981347741632 894.670157864366047 959.584981347741632 894.670157864366047 1062.158446534891482 898.475229721529104 1062.158446534891482 898.475229721529104 1011.294665080013147 963.991229333731098 1011.294665080013147 963.991229333731098 1062.158446534891482 967.794564734605046 1062.158446534891482"/>
  <path class="cls-1" d="M724.619506951890799,693.406294923834139c-8.818277613689133,6.54632178760221-20.81962004091929,9.82047274821889-36.00873009906627,9.82047274821889-23.74477244888385,0-40.898175070037723-4.844891964250564-51.459465313349028-14.534180859343905-10.565745543985031-9.689783928501129-15.844286773656677-24.748205166932166-15.844286773656677-45.174768681885325h-92.182151040245117c0,25.140271626081812,6.326031921033064,47.359846144867333,18.986263814331323,66.648327854793024,12.656766659443747,19.293432044007204,31.512094137355234,34.482047068744578,56.566972500551856,45.567825207850547,25.050423062525624,11.088253306144907,53.03070135039161,16.629162242064922,83.932666812367643,16.629162242064922,43.82035727755374,0,78.302404346300136-9.513552035245084,103.44267597238013-28.544616373004828,25.140519142783887-19.027599103901593,37.711645022639459-45.215856454749883,37.711645022639459-78.564772052548506,0-41.724385828016239-20.602795408207385-74.459955033282313-61.804425957358944-98.204727482163435-16.936330471738984-9.775919741496182-38.586121537899089-18.896415250779683-64.9464029980345-27.366931895336165-26.363746693990834-8.466061343886395-44.782207189328801-16.671240081745054-55.257114102942978-24.617021313806617-10.474906913612358-7.942811031614838-15.713102920532037-16.801433868055028-15.713102920532037-26.580818843405723,0-11.170923885285447,4.755043400696195-20.381515474826301,14.273050736615005-27.628804568175838,9.513799551950797-7.242833792679448,22.476496857547318-10.867963439577579,38.889577017013835-10.867963439577579,16.236600749508398,0,29.109201974845746,4.280553879110812,38.627209310764556,12.832256002584472,9.513799551950797,8.556157424143748,14.272308186502414,20.602795408209204,14.272308186502414,36.139418918781303h91.65890072797265c0-23.217066835939477-6.023814025439606-43.864415250867751-18.069709459391561-61.934124710256583-12.046885500766621-18.070204492800258-28.937920415672124-31.991038959611615-50.674094811532086-41.770423934962309-21.736421912563856-9.775919741496182-46.312355453505916-14.665859745873604-73.720127605001835-14.665859745873604-28.111462140990625,0-53.424005393059815,4.497873545227776-75.945797807440613,13.487185201385728-22.521544897676904,8.993766956831678-39.936077641558768,21.564150286576478-52.245083331870774,37.710654955826612-12.308015623495521,16.150959969920223-18.462023435243282,34.789462815122533-18.462023435243282,55.911548268337356,0,42.424858100359415,24.702662093393883,75.774268731565826,74.112441580854465,100.039321292271779,15.188862541443086,7.508171699377272,34.739711957617146,15.278711104998365,58.6612113331621,23.30716291619683,23.917291591576941,8.032412078464404,40.632589646636916,15.802456450681348,50.149854432444045,23.307162916200468,9.513799551950797,7.508666732781421,14.272308186502414,17.984068679801567,14.272308186502414,31.425710807656287,0,11.874861391479499-4.410747665420786,21.081492713758053-13.224569978436193,27.6288045681722Z"/>
  <path class="cls-1" d="M977.310300140346953,478.008843528246871c10.646931022898571-17.107859547617409,27.407029601385148-25.664016971761157,50.280790768863881-25.664016971761157,22.521792414381707,0,39.282633542978147,5.065181830814254,50.281780835680365,15.189110058145161,10.998404742590537,10.126898427777633,16.845739358072933,26.801603743380838,17.54546908030261,50.018670579320315h91.65890072797265c-3.84294434642652-42.772371552786353-19.817177389686549-76.338111783294153-47.924184230005267-100.69276539085331-28.111462140990625-24.355148640966945-65.298619267838149-36.532970478154311-111.561966413950358-36.532970478154311-32.125440529885964,0-60.407936713345407,7.639355552499183-84.849468684011299,22.915096457050822-24.44474968781833,15.278711104998365-43.169140829309981,36.925036937303958-56.17366845788365,64.946402998033591-13.007992862430001,28.021366060733271-19.509761643309503,60.715352459723363-19.509761643309503,98.074038662449311v18.856317544727062c0,59.536677915239125,14.403492039627054,105.627753435361228,43.210228602175448,138.272236493554374,28.806984079253198,32.649928425678809,68.260651664700163,48.972169954773562,118.370408391095225,48.972169954773562,30.377725082886172,0,57.392688225121674-5.585461942642723,81.052067411123062-16.759851061782683,23.655913952145056-11.171418918689596,42.032296607801982-26.929322362648236,55.125930249818339-47.270245098014129,13.094376192128038-20.336467434695805,20.25082665510854-43.774319170610397,21.474054206315486-70.315040307967138h-91.395790471613509c-.69997723893357,21.650781132979318-6.637407934675139,37.448782282983302-17.80857933666266,47.400438884324103-11.174884152546838,9.951161567933013-27.324854055652395,14.927732418716914-48.447682058980718,14.927732418716914-24.968495033499494,0-42.555794436778342-8.728429050133855-52.768581160848044-26.188257350851927-10.213529274180473-17.456363066856284-15.320788944678498-46.524724785544095-15.320788944678498-87.206075222868094v-26.974370402778732c.524240379088042-37.535413129386143,6.109454805025962-64.856801951184025,16.760841128596439-81.968621766063734Z"/>
  <polygon class="cls-1" points="415.038236930742642 767.125679978724293 492.168649683564581 767.125679978724293 492.168649683564581 688.129238794388584 415.038236930742642 688.129238794388584 415.038236930742642 464.823133672338372 492.168649683564581 464.823133672338372 492.168649683564581 385.826197454591238 415.038236930742642 385.826197454591238 323.379336202769991 385.826197454591238 246.084324841782291 385.826197454591238 246.084324841782291 464.823133672338372 323.379336202769991 464.823133672338372 323.379336202769991 688.129238794388584 246.084324841782291 688.129238794388584 246.084324841782291 767.125679978724293 323.379336202769991 767.125679978724293 415.038236930742642 767.125679978724293"/>
  <path class="cls-1" d="M294.856785779282291,318.170750623032291l11.793701171875-11.79345703125c13.792724609375-13.79296875,13.792724609375-36.1552734375,0-49.9482421875h0c-13.79296875-13.79296875-36.15576171875-13.79296875-49.94873046875,0h0c-13.79296875,13.79296875-13.79296875,36.1552734375,0,49.9482421875l24.974365234375,24.974609375h905.401123046875v-13.18115234375H294.856785779282291Z"/>
  <path class="cls-1" d="M1176.708426262749526,1109.873373983014972c-13.825331767351599-13.825331767351599-36.240350775672596-13.825331767351599-50.065682543024195,0h0c-13.825331767351599,13.825331767351599-13.825331767351599,36.240595489132829,0,50.065437829562143l11.821128510933704,11.821128510931885H246.357029919907291v13.212079830773291h905.318432714599112l25.032963628243124-25.033208341705176c13.825087053889547-13.824842340429313,13.825087053889547-36.240106062210543,0-50.065437829562143h0Z"/>
</svg>